<svg xmlns="http://www.w3.org/2000/svg" width="512" height="512" viewBox="0 0 512 512" version="1.1">
	<path d="M 237 0.584 C 235.075 0.808, 229.225 1.479, 224 2.076 C 169.423 8.308, 115.177 34.871, 75.024 75.024 C 34.872 115.175, 9.879 166.065, 1.859 224 C 0.135 236.454, 0.135 275.546, 1.859 288 C 15.773 388.511, 82.641 468.914, 178 499.794 C 204.227 508.287, 225.420 511.456, 256 511.456 C 269.112 511.456, 282.464 510.907, 288 510.141 C 370.493 498.721, 438.992 452.388, 479.824 380.389 C 494.219 355.006, 505.155 322.360, 509.499 291.804 C 510.304 286.137, 510.972 279.389, 510.982 276.809 C 510.992 274.229, 511.450 271.840, 512 271.500 C 512.599 271.130, 513 264.470, 513 254.882 C 513 244.470, 512.651 239.098, 512 239.500 C 511.387 239.879, 510.993 238.256, 510.982 235.309 C 510.972 232.664, 510.304 225.863, 509.499 220.196 C 501.672 165.138, 476.299 114.346, 436.976 75.024 C 397.665 35.713, 347.616 10.690, 291.804 2.443 C 282.003 0.995, 244.435 -0.279, 237 0.584 M 0.407 256 C 0.407 265.075, 0.559 268.788, 0.744 264.250 C 0.929 259.712, 0.929 252.287, 0.744 247.750 C 0.559 243.213, 0.407 246.925, 0.407 256" stroke="none" fill="black" fill-rule="evenodd"/>
</svg>